<?xml version="1.0" standalone="no"?>
<!DOCTYPE svg PUBLIC "-//W3C//DTD SVG 20010904//EN"
 "http://www.w3.org/TR/2001/REC-SVG-20010904/DTD/svg10.dtd">
<svg version="1.0" xmlns="http://www.w3.org/2000/svg"
 width="1000.000000pt" height="1000.000000pt" viewBox="0 0 1000.000000 1000.000000"
 preserveAspectRatio="xMidYMid meet">
<metadata>
Created by potrace 1.14, written by Peter Selinger 2001-2017
</metadata>
<g transform="translate(0.000000,1000.000000) scale(0.100000,-0.100000)"
fill="#000000" stroke="none">
<path d="M2446 9528 c-3 -18 -7 -37 -8 -43 -1 -5 -9 -37 -19 -69 -10 -33 -16
-63 -13 -68 3 -4 1 -8 -4 -8 -5 0 -8 -11 -7 -25 2 -14 -1 -25 -7 -25 -6 0 -8
-7 -5 -15 4 -8 2 -17 -3 -20 -5 -3 -9 -13 -9 -23 0 -32 -11 -83 -21 -102 -6
-11 -8 -20 -4 -20 3 0 2 -6 -3 -12 -5 -7 -9 -25 -8 -40 0 -15 -2 -25 -6 -22
-4 2 -10 -13 -13 -34 -15 -93 -27 -141 -36 -147 -4 -3 -6 -18 -4 -35 2 -18 -1
-30 -8 -30 -6 0 -9 -3 -5 -6 3 -3 0 -22 -7 -42 -7 -21 -12 -45 -10 -54 1 -10
-2 -18 -6 -18 -5 0 -7 -9 -5 -20 2 -11 0 -20 -5 -20 -4 0 -7 -8 -5 -17 1 -10
-5 -27 -14 -37 -9 -11 -10 -16 -3 -12 14 8 17 -10 3 -19 -6 -3 -8 -14 -6 -25
2 -11 -1 -20 -6 -20 -6 0 -7 -4 -4 -10 3 -5 1 -10 -5 -10 -6 0 -8 -4 -5 -10 3
-5 1 -27 -4 -47 -6 -21 -12 -48 -14 -60 -2 -12 -6 -26 -10 -29 -4 -4 -7 -22
-7 -40 0 -18 -4 -35 -9 -39 -6 -3 -10 -13 -9 -23 0 -9 -3 -28 -7 -42 -3 -14
-7 -29 -8 -35 -2 -5 -5 -14 -8 -20 -4 -5 -5 -18 -4 -27 2 -10 0 -18 -5 -18 -5
0 -7 -8 -5 -17 1 -10 0 -22 -4 -28 -3 -5 -6 -14 -7 -20 -1 -5 -10 -39 -19 -75
-15 -60 -20 -82 -30 -135 -2 -11 -4 -21 -5 -22 -2 -2 -3 -6 -4 -10 -1 -5 -5
-14 -10 -22 -7 -10 -6 -12 4 -6 10 6 11 4 4 -6 -18 -28 -32 -79 -20 -72 6 4 5
-1 -3 -10 -7 -9 -11 -17 -8 -17 4 0 0 -18 -8 -40 -8 -22 -12 -40 -8 -40 3 0 1
-6 -4 -12 -5 -7 -8 -23 -7 -35 0 -13 -2 -23 -6 -23 -4 0 -7 -6 -8 -12 0 -7 -3
-24 -6 -38 -3 -14 -8 -35 -11 -47 -3 -13 -7 -31 -10 -40 -17 -63 -37 -152 -38
-175 -1 -14 -5 -25 -8 -23 -5 4 -22 -68 -34 -140 -2 -11 -4 -20 -5 -20 -1 0
-3 -11 -6 -25 -2 -14 -7 -32 -11 -40 -7 -17 -11 -32 -17 -70 -7 -35 -14 -65
-17 -65 -1 0 -3 -11 -4 -25 -1 -14 -5 -32 -8 -40 -4 -8 -8 -24 -10 -35 -1 -11
-5 -24 -8 -30 -4 -5 -5 -18 -4 -27 2 -10 -1 -18 -5 -18 -5 0 -9 -8 -8 -17 0
-21 -7 -48 -20 -84 -6 -15 -9 -29 -6 -31 2 -3 -4 -29 -14 -59 -9 -30 -17 -66
-17 -81 1 -16 -3 -28 -7 -28 -4 0 -8 -11 -8 -24 0 -14 -4 -27 -8 -30 -5 -3 -8
-19 -7 -36 1 -16 -3 -30 -8 -30 -6 0 -8 -3 -4 -6 3 -3 1 -17 -4 -31 -5 -14
-12 -42 -15 -61 -3 -19 -10 -46 -15 -59 -5 -13 -7 -23 -4 -23 2 0 -2 -17 -9
-37 -7 -21 -12 -46 -10 -55 1 -10 -2 -18 -7 -18 -5 0 -8 -3 -7 -7 1 -5 -1 -21
-5 -38 -4 -16 -10 -41 -13 -55 -7 -33 -10 -42 -18 -61 -4 -9 -6 -20 -5 -25 2
-5 -4 -29 -11 -54 -8 -25 -14 -52 -14 -62 -1 -9 -4 -19 -8 -23 -4 -4 -4 -13
-1 -21 3 -8 1 -14 -4 -14 -5 0 -9 -8 -10 -17 -3 -38 -10 -69 -18 -83 -8 -13
-15 -56 -18 -112 -1 -14 -6 -24 -11 -20 -5 3 -7 -2 -3 -10 3 -9 1 -20 -4 -25
-5 -5 -11 -24 -12 -41 -1 -18 -5 -32 -9 -32 -3 0 -5 -8 -3 -17 1 -10 -1 -22
-5 -28 -4 -5 -10 -23 -13 -40 -5 -32 -9 -48 -25 -110 -6 -22 -13 -51 -16 -65
-13 -69 -19 -89 -25 -86 -3 2 -6 -13 -5 -35 0 -21 -3 -39 -8 -39 -4 0 -7 -3
-6 -7 1 -5 -3 -26 -7 -48 -13 -56 -12 -54 -15 -60 -1 -3 -3 -13 -4 -22 -1 -10
-5 -24 -9 -30 -5 -7 -6 -13 -2 -13 3 0 1 -9 -5 -20 -6 -11 -11 -36 -12 -55 -1
-19 -5 -35 -11 -35 -5 0 -7 -6 -4 -14 3 -8 3 -17 -1 -20 -3 -4 -7 -12 -8 -19
-7 -35 -13 -62 -15 -64 -1 -2 -3 -12 -4 -23 -1 -11 -4 -22 -5 -25 -1 -3 -3 -8
-4 -12 -15 -65 -31 -122 -38 -137 -7 -12 -7 -16 0 -12 10 6 -6 -48 -21 -71 -4
-6 -4 -18 -1 -27 3 -9 2 -16 -3 -16 -6 0 -9 -13 -8 -30 1 -16 -2 -30 -7 -30
-4 0 -7 -3 -6 -7 1 -5 -6 -44 -17 -88 -10 -44 -19 -82 -20 -85 0 -3 -4 -11 -8
-17 -5 -7 -5 -17 -2 -23 3 -5 3 -16 -2 -22 -4 -7 -9 -22 -10 -33 -2 -11 -6
-27 -10 -35 -3 -8 -7 -24 -8 -35 -1 -11 -8 -40 -15 -65 -7 -25 -14 -52 -15
-60 -1 -8 -12 -55 -25 -105 -12 -49 -24 -96 -25 -105 -2 -8 -4 -15 -5 -15 -1
0 -4 -16 -7 -35 -2 -19 -8 -37 -11 -40 -6 -5 -9 -18 -15 -72 0 -10 -4 -18 -7
-18 -3 0 -6 -10 -6 -22 -2 -22 -11 -63 -14 -63 -4 0 -11 -42 -12 -67 -1 -16
-6 -28 -11 -28 -5 0 -7 -7 -3 -15 3 -8 2 -15 -2 -15 -4 0 -8 -10 -9 -23 -2
-21 -9 -56 -13 -67 -1 -3 -3 -9 -5 -15 -1 -5 -3 -12 -4 -15 -3 -7 -9 -30 -16
-65 -3 -16 -9 -39 -12 -50 -4 -11 -8 -31 -9 -45 -1 -14 -3 -25 -4 -25 -1 0 -3
-7 -5 -15 -2 -8 -9 -33 -15 -55 -6 -22 -13 -51 -16 -65 -3 -14 -7 -33 -10 -42
-4 -14 -7 -28 -17 -73 -2 -5 -7 -16 -11 -24 -6 -9 -5 -12 1 -8 6 4 4 -12 -4
-36 -8 -23 -17 -55 -20 -72 -7 -41 -11 -60 -13 -60 -2 0 -10 -34 -15 -60 -2
-11 -4 -20 -5 -20 -1 0 -4 -11 -7 -25 -7 -38 -11 -55 -13 -57 -2 -2 -4 -7 -5
-13 -1 -5 -3 -11 -5 -12 -1 -2 -3 -14 -5 -28 -3 -26 -12 -65 -15 -65 -2 0 -10
-47 -12 -72 -1 -13 -6 -23 -10 -23 -4 0 -8 -14 -8 -31 0 -16 -3 -28 -7 -26 -5
3 -9 -11 -10 -31 -3 -53 -7 -76 -15 -82 -3 -3 -9 -21 -11 -40 -3 -19 -6 -36
-7 -37 -2 -2 -3 -11 -5 -20 -1 -10 -5 -27 -10 -37 -5 -10 -9 -31 -11 -45 -1
-14 -3 -27 -4 -28 -1 -2 -4 -7 -5 -13 -1 -5 -3 -11 -5 -12 -1 -2 -3 -12 -5
-23 -3 -11 -6 -31 -9 -45 -3 -14 -9 -39 -14 -57 -6 -17 -8 -34 -4 -37 3 -3 1
-6 -5 -6 -5 0 -9 -10 -8 -23 1 -12 -2 -28 -7 -34 -6 -7 -8 -19 -5 -27 3 -8 1
-16 -4 -18 -6 -2 -11 -18 -11 -36 -1 -17 -4 -32 -9 -32 -4 0 -6 -8 -4 -17 1
-10 0 -22 -4 -28 -3 -5 -6 -14 -8 -20 -10 -46 -13 -56 -18 -65 -3 -6 0 -10 7
-10 10 0 10 -2 0 -9 -8 -5 -15 -20 -15 -35 -1 -14 -6 -26 -11 -26 -5 0 -7 -3
-4 -6 8 -7 -20 -124 -32 -139 -6 -7 -8 -14 -5 -17 7 -7 -34 -181 -46 -192 -5
-6 -9 -20 -9 -33 l0 -23 839 0 c790 0 839 1 846 18 10 24 18 63 18 90 1 12 4
22 8 22 3 0 10 19 15 42 10 56 11 62 14 68 1 5 9 38 14 67 1 7 5 16 9 19 4 4
7 22 7 40 0 18 5 36 10 39 5 3 10 19 10 34 0 15 3 31 8 35 4 4 7 15 8 24 1 36
17 102 24 102 3 0 6 10 5 22 -1 13 5 43 12 68 15 47 20 67 29 114 2 16 7 32 9
36 2 4 7 22 10 41 4 19 8 39 9 44 1 6 5 16 9 23 5 6 6 12 3 12 -2 0 0 15 5 33
10 31 18 69 21 95 1 6 4 12 8 12 3 0 7 10 8 23 2 30 9 65 21 106 6 19 8 38 5
42 -3 5 1 9 8 9 9 0 9 3 -2 10 -9 6 -10 10 -3 10 10 0 24 39 28 80 0 9 4 20 7
25 4 8 18 73 19 90 0 2 5 19 10 37 6 18 13 44 16 58 10 50 11 55 13 55 1 0 4
14 6 30 3 17 7 37 11 45 7 17 12 35 18 65 10 53 16 79 20 86 3 4 7 24 11 45 3
22 7 44 7 49 1 6 5 13 10 16 4 3 8 22 9 42 1 20 5 37 10 37 5 0 8 6 7 13 -2 6
0 26 4 42 13 55 19 80 22 95 1 8 5 22 8 30 9 26 38 143 42 175 2 11 4 20 5 20
2 0 7 20 12 45 2 8 6 20 9 25 3 6 4 20 3 33 0 12 2 22 5 22 4 0 8 8 9 18 3 31
7 47 16 60 4 7 5 16 2 19 -3 3 -1 12 5 20 9 10 8 13 -2 13 -12 0 -11 2 0 9 8
5 16 20 17 33 4 36 11 73 13 73 2 0 5 11 15 60 1 6 5 16 9 23 5 6 6 12 4 12
-3 0 4 33 14 72 11 40 22 84 24 98 2 14 11 48 19 77 7 28 11 54 8 57 -3 3 -1
6 5 6 6 0 9 11 8 25 -2 14 1 25 7 25 6 0 8 7 5 15 -4 8 -2 17 4 21 6 3 8 11 6
17 -2 7 2 31 8 54 7 24 10 43 7 43 -4 0 1 5 11 11 12 7 15 15 9 26 -8 14 2 60
19 88 4 6 5 20 4 33 -1 12 1 22 5 22 3 0 6 10 7 23 1 12 8 47 17 78 9 31 17
69 18 83 1 14 5 26 9 26 3 0 9 17 12 37 9 56 12 67 20 80 5 7 5 18 2 23 -4 6
-1 18 6 26 7 9 13 28 13 42 1 15 4 32 8 38 4 6 9 26 10 43 1 18 6 35 10 37 4
3 5 11 1 19 -3 8 -1 15 5 15 6 0 9 8 7 18 -1 9 2 23 8 29 5 7 7 13 4 13 -4 0
3 35 19 95 3 11 7 29 9 40 3 11 9 38 15 60 14 51 18 72 26 113 3 17 10 32 14
32 4 0 6 11 5 24 -2 13 5 50 15 82 10 33 23 84 30 114 7 30 15 59 18 65 3 5 6
21 7 35 1 14 7 45 15 70 7 25 14 54 16 65 1 11 5 29 8 40 16 60 37 143 41 165
5 24 13 56 22 90 3 8 4 23 4 33 0 9 5 17 10 17 6 0 8 4 5 8 -3 5 1 29 9 54 7
26 16 59 18 75 3 15 13 60 22 98 9 39 18 77 20 85 2 8 4 15 5 15 2 0 9 33 15
65 2 14 4 26 6 28 1 1 3 7 4 12 1 6 4 13 5 18 1 4 3 12 4 17 2 9 18 83 21 95
12 46 19 67 28 78 6 8 6 12 -3 12 -10 0 -10 3 0 15 6 8 9 19 6 24 -4 5 -2 12
4 16 5 3 10 17 10 31 0 13 5 24 11 24 5 0 7 4 4 10 -7 12 17 120 25 115 4 -2
6 6 5 18 -1 12 4 41 12 66 7 24 10 47 7 52 -3 5 -1 9 5 9 5 0 10 8 9 18 0 15
4 36 16 77 2 6 6 28 11 50 4 22 10 44 13 50 3 5 7 16 8 25 3 30 15 84 20 92 6
10 14 45 18 79 2 15 7 32 11 38 4 7 9 27 12 44 7 41 11 62 13 62 1 0 3 7 5 15
1 8 8 33 13 55 6 22 14 54 17 72 3 18 9 42 14 55 5 13 9 26 10 31 0 4 1 8 2
10 0 1 2 11 4 22 4 26 10 52 31 128 9 34 17 73 19 87 2 14 4 26 5 28 1 1 4 7
5 12 1 6 3 11 5 13 1 1 3 9 5 17 1 8 8 42 16 75 7 33 12 63 11 68 -1 4 2 7 6
7 4 0 8 8 8 18 1 20 20 107 24 107 3 0 13 52 14 78 0 15 4 27 8 27 5 0 7 3 7
8 -1 4 0 9 1 12 1 3 4 16 5 30 1 14 7 38 14 53 6 16 9 33 5 38 -3 5 0 9 7 9 7
0 10 2 7 6 -3 3 -2 22 3 42 5 20 11 44 13 52 2 8 9 33 14 55 6 22 13 51 16 65
3 14 9 40 15 58 5 17 8 32 6 32 -2 0 2 18 10 40 8 22 14 42 15 45 0 3 0 6 1 8
2 6 7 36 13 70 3 21 11 48 17 59 6 11 8 26 5 34 -3 8 -1 14 3 14 5 0 8 8 6 18
-1 9 0 22 4 27 3 6 6 13 7 18 1 4 2 8 4 10 2 2 4 14 13 62 4 17 11 48 17 70 6
22 12 47 14 55 1 8 7 33 14 55 6 22 13 54 16 70 3 17 12 51 20 77 7 26 11 49
8 52 -3 4 -384 6 -848 6 l-842 0 -6 -32z"/>
<path d="M6720 7145 c0 -6 -39 -11 -93 -11 -143 -2 -211 -8 -219 -18 -4 -6
-12 -5 -21 2 -7 7 -16 10 -19 7 -5 -5 -70 -17 -113 -20 -16 -1 -30 -3 -30 -4
0 -4 -59 -13 -80 -12 -11 0 -38 -5 -60 -11 -22 -6 -55 -12 -73 -14 -18 -2 -43
-6 -55 -10 -36 -12 -50 -16 -79 -17 -16 -1 -28 -5 -28 -9 0 -5 -11 -8 -25 -8
-14 0 -25 -4 -25 -8 0 -4 -8 -8 -17 -9 -27 -2 -75 -13 -87 -21 -6 -3 -17 -8
-23 -9 -25 -6 -38 -10 -68 -22 -16 -7 -37 -14 -45 -16 -8 -2 -17 -4 -20 -5 -3
-1 -8 -2 -12 -1 -5 0 -8 -4 -8 -9 0 -6 -6 -10 -14 -10 -14 0 -68 -23 -191 -81
-38 -18 -73 -32 -77 -31 -5 1 -8 -2 -8 -6 0 -5 -21 -19 -47 -32 -27 -13 -54
-30 -61 -37 -7 -7 -20 -13 -28 -13 -8 0 -14 -5 -14 -10 0 -6 -3 -9 -7 -8 -11
4 -190 -119 -248 -170 -11 -10 -42 -36 -70 -57 -27 -22 -65 -56 -85 -75 -19
-20 -50 -48 -68 -63 -19 -15 -31 -27 -28 -27 4 0 -15 -22 -41 -48 -51 -52
-128 -141 -153 -176 -8 -12 -20 -27 -27 -34 -7 -8 -27 -35 -45 -60 -17 -26
-35 -48 -40 -50 -4 -2 -8 -10 -8 -18 0 -8 -4 -14 -10 -14 -5 0 -10 -7 -10 -15
0 -8 -5 -15 -12 -15 -6 0 -9 -3 -5 -6 3 -3 -3 -15 -14 -27 -10 -11 -19 -27
-19 -34 0 -7 -4 -13 -10 -13 -5 0 -10 -7 -10 -15 0 -8 -9 -24 -20 -35 -11 -11
-19 -23 -19 -26 2 -8 -94 -198 -104 -205 -5 -3 -9 -10 -9 -15 -1 -15 -9 -37
-33 -89 -12 -27 -26 -61 -30 -75 -3 -14 -13 -40 -21 -58 -9 -18 -16 -42 -17
-52 -1 -11 -5 -20 -9 -20 -4 0 -10 -20 -14 -45 -3 -25 -10 -45 -15 -45 -4 0
-11 -20 -15 -45 -3 -25 -9 -45 -13 -45 -4 0 -7 -8 -8 -17 -1 -10 -5 -31 -8
-48 -3 -16 -8 -37 -9 -45 -2 -8 -6 -22 -9 -30 -3 -8 -9 -31 -12 -50 -3 -19 -9
-46 -12 -60 -2 -14 -6 -35 -6 -47 -1 -13 -5 -23 -9 -23 -4 0 -7 -18 -6 -39 0
-22 -3 -45 -8 -52 -4 -7 -9 -27 -11 -44 -2 -16 -6 -48 -9 -70 -7 -58 -15 -137
-15 -157 0 -10 -5 -20 -10 -24 -6 -4 -6 -11 2 -20 6 -8 8 -14 3 -14 -10 0 -10
-2 -18 -258 -3 -101 -8 -187 -11 -192 -4 -6 -1 -10 5 -10 7 0 8 -6 1 -18 -6
-11 -6 -24 0 -34 6 -10 6 -19 0 -22 -6 -4 -6 -19 0 -39 11 -40 11 -40 -3 -31
-7 4 -8 3 -4 -5 4 -6 10 -76 13 -154 5 -140 9 -212 13 -212 1 0 3 -14 15 -135
12 -121 18 -164 27 -190 5 -13 21 -107 33 -185 2 -11 4 -21 5 -22 2 -2 3 -11
5 -20 1 -10 5 -26 10 -36 4 -10 5 -21 1 -24 -3 -3 -1 -12 4 -18 6 -7 11 -24
12 -39 1 -14 5 -26 8 -26 3 0 6 -10 7 -22 1 -11 7 -24 14 -28 8 -6 8 -9 0 -15
-8 -5 -9 -11 -2 -19 6 -7 12 -21 14 -32 2 -10 7 -27 11 -36 4 -9 9 -22 10 -30
3 -15 14 -43 27 -73 4 -11 16 -44 25 -73 9 -28 19 -52 23 -52 4 0 7 -10 8 -22
1 -11 8 -25 15 -29 10 -7 10 -9 -1 -9 -12 0 -12 -2 0 -17 22 -28 39 -61 39
-78 0 -8 5 -15 12 -15 6 0 9 -3 6 -6 -4 -3 8 -31 26 -62 17 -31 38 -72 45 -89
7 -18 17 -33 22 -33 5 0 8 -3 7 -7 -1 -5 8 -24 20 -43 11 -19 21 -39 21 -44
-1 -5 5 -12 13 -17 7 -5 13 -12 13 -16 0 -9 33 -57 58 -84 9 -10 17 -22 17
-26 0 -6 73 -106 95 -129 5 -7 26 -31 45 -55 19 -24 43 -50 53 -58 9 -9 17
-21 17 -28 0 -7 6 -13 13 -14 6 0 37 -29 67 -64 30 -35 63 -66 73 -70 9 -3 15
-11 12 -16 -4 -5 0 -9 7 -9 8 0 20 -9 28 -19 7 -11 17 -18 22 -15 4 3 8 -1 8
-8 0 -8 18 -25 40 -38 22 -14 40 -31 40 -37 0 -7 5 -13 11 -13 6 0 29 -15 52
-33 23 -18 59 -44 79 -58 21 -13 38 -27 38 -31 0 -5 5 -8 11 -8 6 0 29 -13 52
-29 23 -15 69 -43 102 -61 33 -18 63 -38 67 -44 4 -6 8 -8 8 -3 0 4 11 0 25
-9 14 -9 25 -12 25 -8 0 5 5 2 10 -6 5 -8 13 -15 17 -16 4 0 30 -10 56 -22 27
-12 53 -22 58 -22 5 0 9 -4 9 -8 0 -5 23 -15 50 -22 28 -7 50 -17 50 -20 0 -4
6 -7 13 -8 6 0 49 -14 95 -30 45 -16 82 -28 82 -25 0 2 9 -1 21 -7 11 -7 33
-14 47 -17 37 -7 44 -9 64 -18 10 -4 30 -8 45 -8 16 -1 30 -5 33 -9 3 -4 22
-8 43 -10 20 -1 37 -5 37 -8 0 -3 12 -7 28 -8 15 -1 38 -4 52 -7 14 -3 45 -8
70 -12 25 -3 53 -10 64 -15 13 -7 16 -7 12 1 -4 6 -2 11 3 11 6 0 11 -4 11 -8
0 -4 19 -9 43 -10 23 -1 68 -3 99 -4 32 -2 58 -6 58 -10 0 -3 143 -6 317 -7
237 0 319 3 325 12 4 7 8 7 8 2 0 -11 45 -13 56 -3 3 4 17 4 30 2 15 -3 24 0
24 8 0 9 3 8 10 -2 5 -8 10 -10 10 -5 0 6 20 10 45 10 25 -1 45 1 45 4 0 3 12
6 28 7 56 1 107 9 114 19 5 6 8 5 8 -4 0 -9 4 -10 13 -3 11 9 69 21 125 25 12
1 22 5 22 9 0 3 11 5 25 3 14 -1 25 2 25 8 0 6 3 8 6 5 3 -4 20 -2 37 3 18 6
40 12 51 14 10 3 44 12 75 21 31 9 61 17 66 19 47 10 64 19 58 28 -3 6 -1 7 5
3 6 -3 37 3 69 14 32 12 65 23 72 24 8 2 17 8 19 14 2 7 8 10 12 7 8 -5 117
42 130 55 3 3 14 6 24 8 10 2 25 10 33 18 13 13 28 18 36 12 2 -2 11 5 21 15
10 9 24 17 32 17 8 0 14 4 14 8 0 5 19 18 43 31 47 24 79 43 87 51 3 3 28 21
55 39 28 19 52 37 55 40 3 4 21 17 40 30 19 14 39 30 43 38 4 7 12 13 17 13 4
0 24 15 42 33 19 17 65 60 101 95 37 35 67 66 67 69 0 9 29 33 40 33 6 0 9 4
5 9 -3 6 1 13 8 18 18 11 137 162 137 174 0 6 5 7 10 4 6 -3 10 0 10 8 0 8 11
27 25 43 14 16 25 35 25 42 0 6 4 12 8 12 5 0 26 31 48 70 21 38 42 70 45 70
7 0 22 40 20 53 -1 4 4 7 9 7 6 0 10 6 10 14 0 7 7 19 15 26 8 7 12 16 9 21
-3 5 0 9 5 9 6 0 10 3 9 8 -1 4 6 22 15 40 10 17 14 32 10 32 -5 0 -3 4 3 8
10 6 41 69 41 82 0 3 6 16 13 30 8 14 13 28 12 33 -1 4 3 7 8 7 5 0 9 3 8 8
-3 14 14 62 23 62 5 0 8 3 7 8 -2 12 14 66 24 79 5 7 7 17 3 23 -3 5 -1 10 4
10 6 0 11 9 11 19 0 11 4 22 9 26 6 3 8 14 6 25 -2 11 1 20 6 20 6 0 7 5 4 10
-3 6 -1 10 5 10 6 0 9 4 6 9 -4 5 -1 22 5 38 7 15 13 34 15 42 2 8 6 26 10 40
4 14 8 29 9 34 2 4 4 8 5 10 2 2 7 32 12 75 1 6 4 12 7 12 4 0 8 12 9 27 1 15
5 29 10 32 12 10 12 28 -1 28 -18 0 -112 18 -127 23 -3 1 -17 2 -32 2 -16 1
-28 4 -28 7 0 4 -10 7 -22 8 -37 1 -93 9 -103 14 -6 3 -26 6 -46 8 -35 2 -74
8 -74 11 0 3 -40 9 -72 12 -18 1 -33 5 -33 8 0 3 -17 7 -37 7 -45 2 -63 6 -82
17 -11 7 -12 6 -6 -5 8 -12 6 -12 -8 0 -9 7 -17 11 -17 9 0 -3 -19 -1 -42 3
-24 5 -59 11 -78 14 -19 2 -46 7 -60 10 -31 7 -109 18 -132 19 -10 0 -18 3
-18 6 0 3 -10 6 -22 7 -24 0 -86 9 -128 19 -35 7 -67 12 -124 19 -27 3 -53 8
-59 12 -13 8 -58 15 -109 17 -21 0 -38 3 -38 6 0 5 -34 10 -77 13 -7 0 -13 5
-13 10 0 5 -7 4 -15 -3 -10 -8 -15 -9 -15 -1 0 6 -11 10 -25 9 -13 -1 -22 -4
-20 -7 3 -2 1 -9 -5 -15 -5 -7 -10 -31 -11 -54 -2 -23 -7 -42 -12 -42 -5 0 -7
-6 -4 -14 3 -7 0 -19 -6 -25 -6 -6 -8 -11 -4 -11 3 0 0 -21 -8 -47 -8 -25 -12
-50 -9 -54 2 -4 -1 -11 -7 -14 -5 -4 -8 -13 -5 -20 3 -8 1 -15 -5 -17 -5 -2
-11 -13 -14 -26 -6 -33 -28 -95 -38 -109 -5 -7 -6 -17 -2 -23 3 -5 1 -10 -4
-10 -6 0 -11 -5 -11 -11 0 -5 -12 -36 -27 -67 -15 -31 -26 -60 -25 -64 1 -3
-5 -12 -13 -18 -8 -7 -15 -18 -15 -25 0 -7 -7 -18 -15 -25 -8 -7 -12 -16 -9
-21 3 -5 -2 -12 -10 -15 -9 -3 -16 -12 -16 -19 0 -6 -28 -45 -62 -86 -57 -67
-86 -96 -140 -139 -10 -8 -31 -25 -46 -38 -15 -12 -35 -25 -44 -28 -10 -3 -18
-10 -18 -15 0 -6 -4 -8 -9 -5 -5 3 -14 -1 -21 -9 -7 -8 -16 -13 -20 -10 -4 3
-13 -2 -20 -10 -7 -8 -18 -15 -24 -15 -6 0 -23 -6 -37 -14 -61 -32 -283 -91
-301 -80 -4 3 -8 -1 -8 -8 0 -8 -3 -9 -8 -3 -8 11 -41 13 -57 3 -28 -16 -408
6 -458 27 -10 4 -28 9 -40 10 -12 1 -23 4 -24 5 -2 1 -6 3 -10 4 -5 1 -23 6
-40 10 -18 4 -33 11 -33 16 0 4 -9 6 -20 3 -11 -3 -20 0 -20 6 0 6 -6 11 -13
11 -7 0 -47 17 -88 38 -107 54 -137 73 -167 105 -9 9 -21 17 -26 17 -5 0 -21
11 -35 25 -123 119 -151 146 -151 151 0 2 -10 16 -22 30 -53 58 -58 64 -50 64
4 0 2 4 -4 8 -15 10 -77 115 -77 130 0 6 -4 12 -8 12 -8 0 -24 40 -21 53 1 4
-2 7 -8 7 -5 0 -15 19 -22 43 -6 23 -18 52 -26 64 -7 12 -13 24 -13 27 0 3 -1
11 -3 18 -32 102 -60 206 -70 259 -2 13 -5 24 -6 24 -3 0 -10 39 -15 75 -2 19
-7 51 -11 70 -4 19 -7 45 -8 58 0 12 -2 22 -5 22 -4 0 -7 28 -9 62 -1 34 -8
68 -15 77 -10 12 -9 13 1 7 9 -6 11 0 7 25 -3 18 -8 36 -11 41 -3 4 0 8 7 8 8
0 8 4 -1 15 -7 8 -10 22 -6 30 3 8 0 15 -6 15 -9 0 -9 3 -1 11 7 7 8 21 4 33
-4 11 -6 47 -5 79 0 35 -3 57 -10 57 -8 0 -8 2 0 8 12 7 13 56 1 68 -3 4 -2
15 4 25 7 14 6 19 -3 19 -8 0 -9 3 -3 8 12 8 13 32 2 50 -5 6 -4 12 1 12 5 0
9 7 9 15 0 8 -4 15 -9 15 -5 0 -6 6 -2 12 12 19 12 48 0 48 -7 0 -8 3 -1 8 12
8 13 22 2 40 -5 6 -4 12 0 12 13 0 11 54 -1 62 -7 5 -7 8 -1 8 6 0 12 32 13
78 4 103 6 125 15 140 5 7 3 12 -3 12 -8 0 -9 7 -5 18 4 9 9 35 11 57 4 37 10
73 14 85 1 3 2 22 2 43 -1 20 2 37 6 37 4 0 8 12 8 28 1 15 4 41 8 57 16 76
18 91 19 103 0 6 3 12 7 12 4 0 7 6 8 13 3 28 10 62 11 62 2 0 4 8 7 18 10 41
18 65 40 115 8 18 14 39 14 47 0 8 4 15 9 15 7 0 22 48 20 66 0 4 3 10 8 13 4
3 14 17 21 30 8 13 23 40 34 60 25 45 84 126 123 170 55 61 115 123 115 117 0
-3 10 5 23 17 37 35 77 67 77 62 0 -5 13 4 45 33 7 6 18 12 24 12 6 0 11 5 11
12 0 6 3 8 6 5 4 -4 19 2 33 11 22 15 79 42 156 73 33 13 70 23 78 21 4 -1 7
2 7 7 0 6 9 8 20 6 11 -2 22 0 25 5 3 5 14 7 25 5 10 -2 24 2 29 9 7 8 28 12
51 11 22 -1 40 1 40 4 0 7 35 10 223 14 71 2 130 0 132 -3 2 -4 31 -6 64 -6
34 1 61 -2 61 -7 0 -5 6 -7 13 -4 6 2 22 0 35 -4 31 -12 72 -21 104 -22 14 -1
24 -5 22 -9 -3 -4 11 -10 31 -14 19 -3 35 -9 35 -13 0 -4 6 -8 14 -8 18 0 84
-31 91 -43 4 -6 11 -7 17 -4 6 4 13 3 17 -2 3 -5 35 -29 70 -53 86 -60 164
-133 217 -206 24 -33 48 -65 53 -71 6 -7 7 -15 4 -18 -4 -3 -2 -6 4 -6 8 0 31
-36 38 -60 1 -3 14 -30 28 -60 15 -30 27 -61 27 -67 0 -7 4 -13 8 -13 5 0 9
-6 9 -13 0 -6 9 -41 21 -77 11 -36 23 -78 26 -95 2 -16 5 -31 6 -32 2 -2 3
-12 4 -22 0 -11 4 -22 8 -26 4 -4 4 -14 1 -22 -6 -14 19 -14 100 2 65 12 84
16 127 21 24 3 49 8 54 11 8 6 36 9 116 16 14 1 31 9 38 17 8 8 11 9 7 3 -7
-14 7 -18 19 -6 4 4 21 9 39 10 18 2 44 4 60 6 15 1 27 4 27 7 0 6 27 11 73
13 15 0 27 5 27 9 0 5 4 6 10 3 5 -3 27 -1 47 4 21 6 55 11 76 13 20 1 37 5
37 9 0 4 14 5 30 4 17 -1 30 1 30 5 0 4 11 6 25 5 14 -2 27 1 31 6 3 5 10 6
16 3 6 -4 14 0 19 7 7 11 9 11 9 1 0 -7 4 -10 10 -7 13 8 46 15 90 20 19 2 36
4 38 6 1 1 7 3 12 4 6 1 11 3 13 4 1 1 20 4 42 6 51 5 67 9 83 18 7 5 12 3 12
-4 0 -8 4 -8 13 -1 6 5 32 12 57 15 42 6 58 9 120 22 28 6 98 17 118 18 6 0
12 4 12 9 0 5 4 7 9 4 5 -3 14 1 21 9 10 12 10 15 0 15 -7 0 -10 6 -7 14 3 7
1 18 -4 23 -5 5 -12 19 -14 31 -3 12 -7 32 -10 44 -2 12 -10 25 -17 30 -7 4
-10 8 -6 8 5 0 -1 22 -11 49 -10 28 -16 52 -13 55 3 4 0 6 -7 6 -7 0 -10 4 -7
8 3 5 -3 26 -13 48 -38 81 -44 99 -42 112 1 6 -3 12 -8 12 -5 0 -13 10 -17 23
-14 46 -58 137 -66 137 -4 0 -8 12 -8 26 0 14 -4 23 -9 20 -4 -3 -14 13 -21
34 -7 22 -16 40 -20 40 -3 0 -17 22 -31 50 -13 27 -27 50 -31 50 -5 0 -8 4 -8
10 0 21 -179 269 -222 309 -10 8 -18 21 -18 28 0 7 -7 13 -17 13 -9 0 -14 2
-11 5 5 5 -157 175 -166 175 -3 0 -18 12 -34 28 -40 38 -81 72 -87 72 -3 0
-13 8 -23 18 -10 9 -29 24 -42 32 -13 8 -31 22 -41 32 -9 9 -20 14 -23 11 -3
-4 -6 -1 -6 6 0 7 -4 10 -9 7 -4 -3 -16 3 -26 14 -10 11 -24 20 -32 20 -7 0
-13 5 -13 10 0 6 -4 10 -10 10 -5 0 -32 14 -61 30 -28 17 -56 32 -62 33 -6 1
-18 8 -25 15 -8 7 -27 16 -43 19 -16 3 -29 9 -29 14 0 5 -7 9 -15 9 -9 0 -26
7 -38 15 -13 8 -33 16 -46 18 -12 2 -26 9 -30 16 -5 7 -11 12 -15 12 -3 -1 -7
-1 -8 0 -2 0 -14 2 -27 5 -13 2 -38 11 -55 19 -18 9 -41 17 -51 19 -11 2 -33
9 -50 16 -16 6 -31 11 -32 11 -2 -1 -4 -1 -5 0 -4 1 -23 5 -88 22 -30 7 -58
14 -62 15 -4 2 -13 4 -20 6 -27 8 -142 29 -157 29 -9 0 -20 3 -26 7 -5 4 -18
6 -27 5 -10 -2 -18 0 -18 3 0 4 -17 8 -38 9 -20 1 -62 4 -92 8 -30 3 -61 7
-67 7 -7 1 -13 6 -13 12 0 6 -4 6 -12 -2 -7 -7 -17 -8 -29 -2 -12 7 -20 6 -24
0 -4 -7 -12 -7 -18 -2 -7 4 -19 8 -27 7 -8 0 -18 4 -22 10 -5 6 -8 5 -8 -3 0
-7 -4 -11 -9 -7 -6 3 -62 7 -126 9 -64 2 -119 7 -122 10 -3 3 -14 1 -24 -5
-12 -6 -19 -6 -19 0 0 10 -19 9 -37 -2 -8 -5 -13 -3 -13 3 0 6 -5 8 -11 4 -18
-11 -53 -11 -61 1 -5 6 -8 6 -8 0z"/>
</g>
</svg>
